<?xml version="1.0" standalone="no"?>
<!DOCTYPE svg PUBLIC "-//W3C//DTD SVG 20010904//EN"
 "http://www.w3.org/TR/2001/REC-SVG-20010904/DTD/svg10.dtd">
<svg version="1.0" xmlns="http://www.w3.org/2000/svg"
 width="512.000000pt" height="512.000000pt" viewBox="0 0 512.000000 512.000000"
 preserveAspectRatio="xMidYMid meet">
<metadata>
Created by potrace 1.14, written by Peter Selinger 2001-2017
</metadata>
<g transform="translate(0.000000,512.000000) scale(0.100000,-0.100000)"
fill="#000000" stroke="none">
<path d="M2480 4910 c17 -5 2 -8 -50 -9 -124 -3 -150 -5 -150 -13 0 -5 -5 -8
-11 -8 -5 0 -8 4 -5 8 3 5 -1 9 -9 9 -8 0 -12 -4 -10 -7 3 -4 -14 -8 -37 -8
-22 -1 -44 -5 -47 -11 -4 -5 -32 -11 -63 -12 -32 -1 -55 -6 -52 -11 3 -4 -11
-8 -30 -8 -20 0 -36 -4 -36 -8 0 -4 -11 -9 -24 -10 -14 -1 -41 -11 -61 -22
-20 -11 -33 -16 -30 -9 4 6 -8 3 -26 -7 -30 -17 -45 -21 -86 -26 -7 -1 -11 -6
-10 -12 1 -6 -8 -10 -20 -8 -13 2 -23 -2 -23 -7 0 -6 -9 -11 -20 -11 -11 0
-20 -4 -20 -10 0 -5 -8 -10 -17 -10 -23 -1 -55 -25 -46 -34 4 -4 0 -4 -8 -1
-9 3 -23 -3 -33 -14 -10 -11 -23 -18 -27 -15 -5 3 -9 0 -9 -5 0 -6 -9 -11 -20
-11 -11 0 -20 -6 -20 -14 0 -9 -7 -12 -22 -9 -19 4 -20 3 -8 -6 12 -9 11 -11
-7 -11 -15 0 -23 -6 -23 -17 0 -9 -3 -14 -6 -10 -4 3 -13 -1 -21 -9 -8 -8 -19
-12 -24 -8 -5 3 -8 0 -7 -7 2 -7 -7 -18 -19 -24 -13 -5 -23 -13 -23 -17 0 -5
-8 -8 -17 -8 -15 0 -16 -2 -3 -10 12 -8 10 -10 -8 -10 -15 0 -26 -7 -29 -20
-3 -11 -9 -17 -14 -14 -5 3 -9 0 -9 -6 0 -6 -6 -18 -14 -26 -11 -11 -16 -11
-19 -1 -3 6 -6 2 -6 -10 -1 -14 -7 -23 -17 -23 -8 0 -13 -4 -10 -9 3 -5 -3
-11 -14 -14 -13 -3 -20 -14 -20 -29 0 -18 -2 -20 -10 -8 -8 12 -10 12 -10 1 0
-7 -10 -22 -22 -32 -11 -11 -17 -19 -12 -19 5 0 -1 -7 -13 -15 -15 -10 -20
-22 -16 -33 3 -9 3 -14 -2 -10 -9 8 -35 -15 -35 -32 0 -6 -5 -8 -12 -4 -8 5
-7 0 2 -11 9 -11 10 -16 3 -11 -9 5 -13 0 -13 -16 0 -18 -2 -20 -10 -8 -8 12
-10 10 -10 -8 0 -13 -4 -20 -10 -17 -6 4 -10 -7 -10 -27 0 -25 -3 -29 -10 -18
-8 13 -10 12 -10 -2 0 -10 0 -20 0 -23 1 -3 -6 -12 -14 -21 -8 -8 -12 -22 -9
-31 4 -11 3 -14 -5 -9 -8 5 -12 -2 -12 -19 0 -15 -4 -24 -10 -20 -6 4 -10 -5
-10 -20 0 -14 -4 -24 -8 -21 -4 2 -8 -3 -9 -12 -3 -47 -8 -70 -15 -66 -8 5
-12 -10 -9 -33 1 -6 -3 -14 -9 -18 -5 -3 -10 -23 -10 -43 0 -22 -3 -32 -8 -24
-5 7 -9 -14 -10 -49 -1 -34 -6 -67 -12 -74 -8 -9 -8 -15 0 -20 5 -3 10 -12 10
-18 0 -8 -3 -7 -9 2 -5 8 -9 -62 -10 -168 0 -100 3 -180 7 -177 5 3 9 -1 9 -9
0 -8 -3 -12 -7 -10 -4 2 -7 -2 -7 -10 0 -8 4 -12 9 -9 13 8 9 -20 -4 -35 -10
-11 -10 -13 0 -7 8 5 12 -2 12 -23 0 -16 6 -32 13 -34 9 -4 9 -6 0 -6 -7 -1
-13 -6 -13 -12 0 -5 4 -8 8 -5 4 2 9 -5 9 -17 2 -17 0 -19 -7 -7 -6 9 -10 10
-10 3 0 -6 4 -15 10 -18 5 -3 10 -22 10 -41 0 -19 5 -34 11 -34 8 0 7 -6 -2
-17 -10 -11 -10 -14 -1 -9 8 5 12 -1 12 -18 0 -14 4 -26 9 -26 12 0 8 -43 -4
-55 -6 -5 -20 -15 -30 -22 -11 -6 -19 -17 -17 -23 2 -8 -5 -11 -18 -7 -15 4
-20 0 -20 -15 0 -10 -4 -16 -10 -13 -5 3 -10 1 -10 -4 0 -6 0 -13 -1 -16 0 -2
-12 -17 -27 -33 -15 -16 -33 -50 -41 -75 -7 -26 -18 -47 -25 -47 -7 0 -7 -3 2
-8 10 -7 10 -14 -2 -36 -8 -15 -12 -42 -10 -59 4 -24 2 -28 -5 -17 -6 8 -11
10 -11 5 0 -6 6 -17 13 -24 9 -11 9 -13 0 -7 -16 9 -17 -27 -2 -56 6 -11 7
-18 2 -15 -5 4 -10 0 -10 -8 0 -8 3 -12 7 -10 4 2 7 -10 8 -27 0 -17 6 -36 11
-41 6 -6 11 -26 11 -45 0 -19 4 -31 10 -27 9 5 14 -15 13 -52 0 -7 4 -11 9
-10 6 1 12 -5 13 -14 2 -10 13 -27 24 -38 12 -12 19 -26 16 -31 -4 -6 -1 -10
6 -10 6 0 26 -16 43 -35 18 -19 36 -32 39 -28 4 3 7 -2 7 -12 0 -10 3 -15 6
-12 10 9 46 -12 39 -23 -4 -6 1 -7 11 -3 13 5 15 3 9 -7 -5 -9 -4 -11 4 -6 6
4 25 0 42 -8 17 -9 35 -13 40 -10 5 3 9 0 9 -6 0 -6 4 -9 9 -5 5 3 12 1 16 -5
3 -5 29 -10 56 -10 28 0 48 -4 45 -8 -2 -4 4 -8 14 -8 10 0 16 4 14 8 -6 10
26 5 45 -6 10 -6 12 -5 7 2 -9 15 5 15 25 -1 9 -7 14 -17 12 -24 -2 -6 1 -14
6 -18 6 -3 11 -15 11 -26 0 -11 5 -17 10 -14 6 3 10 -1 10 -9 0 -9 5 -16 12
-16 6 0 8 -3 5 -7 -4 -3 -1 -13 7 -22 14 -16 16 -20 16 -42 0 -5 5 -7 10 -4 9
5 15 -16 11 -38 -1 -5 3 -6 9 -2 5 3 10 1 10 -5 0 -6 7 -18 15 -27 8 -8 12
-19 9 -25 -4 -7 -2 -8 4 -4 7 4 12 2 12 -3 0 -6 9 -21 20 -33 10 -13 19 -27
19 -31 0 -5 9 -17 20 -26 12 -10 21 -25 21 -32 0 -11 2 -11 10 1 8 13 10 12
10 -2 0 -10 5 -18 10 -18 6 0 10 -7 10 -16 0 -8 4 -12 10 -9 10 6 15 -9 10
-30 -1 -5 1 -7 5 -3 8 8 43 -24 38 -35 -3 -4 1 -6 9 -5 7 2 12 -2 11 -9 -2 -7
6 -10 18 -8 18 4 19 2 7 -12 -7 -9 -8 -14 -2 -10 7 4 17 0 24 -8 7 -8 18 -15
26 -15 7 0 15 -8 18 -18 3 -9 16 -22 28 -27 13 -6 22 -17 20 -24 -1 -7 2 -10
7 -7 5 4 16 -1 24 -9 9 -8 21 -15 27 -15 6 0 8 -5 5 -10 -4 -6 -3 -10 2 -9 29
5 42 -2 38 -22 -5 -26 -25 -50 -35 -44 -5 3 -11 -1 -13 -7 -4 -10 -6 -10 -6 0
-1 8 -11 2 -27 -13 -14 -14 -30 -23 -35 -20 -5 4 -9 -3 -9 -15 0 -12 -5 -18
-10 -15 -10 6 -14 -15 -11 -44 2 -7 -2 -10 -7 -7 -5 3 -9 -2 -9 -12 0 -38 -3
-53 -11 -48 -4 2 -9 -7 -10 -22 -1 -15 -7 -28 -12 -30 -6 -2 -10 -13 -10 -25
0 -18 -2 -19 -10 -7 -7 11 -10 7 -10 -18 0 -18 -4 -31 -8 -28 -4 2 -9 -7 -10
-22 -1 -14 -11 -35 -22 -47 -11 -12 -20 -28 -20 -36 0 -8 -4 -19 -10 -25 -5
-5 -10 -24 -12 -42 -1 -17 -6 -32 -10 -32 -4 0 -8 -12 -8 -26 0 -17 -4 -23
-12 -18 -8 5 -7 0 2 -11 9 -11 10 -16 2 -11 -7 4 -12 1 -12 -9 0 -17 -20 -56
-35 -67 -6 -5 -5 -8 3 -8 6 0 12 -5 12 -11 0 -5 -4 -7 -10 -4 -5 3 -10 0 -10
-8 0 -8 -6 -27 -14 -42 -8 -15 -12 -33 -10 -39 2 -6 -5 -22 -17 -35 -12 -12
-22 -33 -23 -46 0 -13 -4 -21 -8 -18 -5 2 -8 -8 -8 -22 0 -15 -4 -24 -10 -20
-6 4 -10 -5 -10 -19 0 -14 -4 -26 -10 -26 -5 0 -9 -3 -9 -7 3 -21 -2 -44 -9
-39 -4 2 -9 -4 -9 -15 -2 -19 18 -19 1248 -19 813 0 1249 4 1249 10 0 6 -4 10
-10 10 -5 0 -10 9 -10 20 0 11 -4 20 -10 20 -5 0 -9 3 -8 8 1 4 -4 18 -11 31
-8 15 -9 21 -2 16 6 -3 2 10 -9 30 -11 19 -20 42 -20 50 0 8 -3 15 -8 15 -4 0
-13 9 -20 21 -9 14 -10 19 -2 14 7 -4 5 4 -4 17 -9 14 -13 28 -9 31 3 4 1 7
-5 7 -7 0 -12 9 -12 20 0 11 -4 20 -8 20 -5 0 -9 7 -10 15 -1 8 -3 22 -4 30
-1 8 -5 12 -10 9 -4 -3 -8 4 -8 16 0 12 -4 19 -9 15 -6 -3 -8 4 -6 15 2 11 -1
20 -7 20 -6 0 -9 3 -5 6 3 4 -1 20 -9 36 -9 16 -13 36 -10 44 3 9 1 12 -4 9
-6 -3 -10 2 -10 13 0 10 -3 22 -7 26 -4 3 -8 14 -9 24 -2 9 -8 18 -13 20 -6 2
-11 17 -11 33 0 18 -4 28 -10 24 -9 -5 -16 32 -11 58 1 5 -3 6 -9 2 -6 -3 -10
3 -10 15 0 12 -5 18 -10 15 -9 -5 -15 24 -11 48 1 5 -3 6 -9 2 -11 -7 -13 3
-12 48 0 18 -3 25 -11 20 -7 -4 -5 2 3 12 9 11 10 16 3 11 -12 -6 -19 18 -14
47 1 5 -3 6 -9 2 -5 -3 -10 1 -10 9 0 9 -6 15 -12 13 -7 -1 -12 3 -11 10 2 7
-6 10 -17 8 -11 -2 -24 4 -30 13 -5 10 -10 12 -10 5 0 -18 -29 -16 -36 2 -4 8
-10 12 -15 9 -5 -3 -9 0 -9 5 0 6 5 11 10 11 6 0 10 9 10 20 0 19 10 24 39 21
7 -2 10 2 6 8 -3 6 1 11 9 11 8 0 20 9 26 20 6 11 15 20 21 20 6 0 17 7 26 15
8 8 19 12 25 9 7 -4 8 -2 4 4 -4 7 -2 12 4 12 6 0 8 5 4 12 -4 6 -3 8 4 4 6
-3 32 14 57 38 25 25 49 46 53 48 4 2 6 6 5 10 -2 5 3 7 10 5 6 -1 11 4 10 10
-2 7 1 12 6 10 5 -1 9 2 9 6 1 5 9 16 19 25 10 9 24 29 32 44 9 17 23 28 35
28 17 0 18 2 6 10 -11 7 -11 10 -2 10 7 0 11 3 9 8 -6 10 30 42 39 34 4 -4 4
-2 1 4 -4 7 2 23 13 36 11 14 16 29 12 33 -4 5 -1 5 6 1 7 -4 12 -2 12 7 0 8
9 22 20 32 11 10 20 25 20 34 0 9 14 32 30 51 16 19 30 43 30 53 0 12 4 16 13
11 9 -6 9 -5 0 8 -11 12 -9 18 9 34 13 12 18 13 13 4 -8 -13 -6 -13 7 -2 9 7
22 12 30 11 7 -1 45 -1 83 0 49 1 66 4 55 11 -8 5 -10 10 -4 10 5 0 16 -6 23
-12 11 -10 13 -10 7 0 -4 6 -3 12 3 12 5 0 12 -6 14 -12 4 -10 6 -10 6 0 1 6
10 12 22 12 11 0 17 5 14 10 -3 6 -1 10 4 10 6 0 11 -6 11 -12 0 -7 7 -2 16
10 10 14 24 22 37 20 14 -2 21 2 19 10 -1 8 2 11 7 8 5 -4 16 -1 23 6 8 7 23
18 33 25 11 6 19 16 17 23 -1 6 2 9 7 6 13 -8 43 23 35 36 -4 6 -2 8 3 5 6 -4
17 1 24 10 12 14 12 16 -1 9 -8 -4 -7 -1 4 8 10 8 15 20 10 27 -4 8 -3 10 4 5
7 -4 12 -1 12 9 0 9 5 13 10 10 6 -4 10 9 10 32 0 28 3 34 10 23 7 -11 10 -7
10 17 0 18 9 49 20 68 11 20 16 34 10 30 -5 -3 -10 -2 -10 4 0 5 5 13 10 16 6
3 10 12 10 18 0 7 -4 6 -10 -3 -6 -9 -10 -10 -10 -3 0 6 5 15 10 18 13 8 9 47
-5 57 -6 5 -5 8 4 8 11 0 11 3 0 17 -10 11 -10 14 -1 9 15 -9 16 6 1 21 -8 8
-8 13 0 17 6 4 11 13 11 19 0 7 -4 6 -11 -3 -9 -12 -10 -11 -6 7 3 13 1 25 -4
28 -4 3 -5 13 -2 22 4 9 2 14 -3 11 -5 -3 -9 7 -10 23 -1 35 -42 119 -66 137
-10 7 -18 20 -18 29 0 9 -3 13 -6 10 -4 -4 -17 5 -29 19 -14 17 -28 24 -35 19
-9 -5 -11 -4 -6 4 4 6 0 14 -8 17 -10 4 -16 19 -16 41 0 25 3 32 13 27 9 -6 9
-4 -1 8 -9 11 -10 18 -2 23 6 4 10 12 9 18 -4 34 2 98 9 93 4 -2 9 5 9 17 2
18 0 19 -8 7 -8 -12 -9 -10 -3 5 11 26 13 396 2 389 -13 -8 -9 10 5 25 10 11
9 12 -1 6 -8 -4 -13 -2 -11 6 4 34 -2 90 -9 85 -5 -3 -9 1 -9 9 0 8 4 12 8 10
12 -8 -2 40 -22 79 -6 10 -6 16 -1 12 5 -3 9 1 9 9 0 8 -4 12 -9 9 -4 -3 -8
10 -8 29 0 19 -7 51 -15 71 -9 20 -13 42 -9 48 4 7 3 8 -4 4 -8 -5 -12 4 -12
29 0 20 -4 34 -9 31 -11 -7 -26 37 -33 91 -1 7 -5 10 -10 7 -7 -5 -13 18 -9
39 1 5 -2 6 -7 3 -8 -5 -38 62 -34 77 1 5 -2 6 -8 2 -9 -5 -15 15 -11 38 1 5
-3 6 -9 2 -5 -3 -10 1 -10 9 0 9 -4 16 -10 16 -5 0 -10 9 -10 21 0 11 -4 17
-10 14 -5 -3 -10 -1 -10 5 0 6 -7 18 -15 27 -8 8 -12 19 -9 25 4 7 2 8 -4 4
-7 -4 -12 -1 -12 8 0 9 -4 16 -10 16 -5 0 -10 10 -10 23 0 18 -2 19 -10 7 -8
-12 -10 -10 -10 10 0 20 -2 22 -10 10 -9 -13 -10 -13 -11 0 -1 8 -1 18 0 23 0
4 -6 7 -15 7 -8 0 -13 3 -11 8 4 7 -130 145 -145 150 -5 1 -8 5 -7 8 0 3 -17
18 -38 32 -21 14 -40 28 -43 31 -3 3 -14 11 -25 18 -11 6 -19 17 -17 23 2 8
-3 10 -13 6 -9 -3 -18 1 -21 9 -4 8 -11 15 -16 15 -5 0 -23 9 -39 21 -16 11
-34 17 -40 13 -8 -5 -9 -3 -4 6 6 10 4 12 -8 7 -10 -4 -16 -2 -14 6 1 7 -8 11
-20 11 -13 -1 -21 2 -18 5 4 7 -45 40 -62 43 -26 4 -43 11 -43 19 0 5 -16 9
-36 9 -21 0 -33 4 -29 10 3 6 -3 10 -14 10 -11 0 -23 5 -26 10 -3 6 -21 10
-40 10 -18 0 -35 5 -37 11 -2 5 -18 11 -35 11 -18 1 -30 5 -27 9 2 4 -4 6 -16
4 -11 -2 -22 0 -25 5 -3 5 -13 6 -22 3 -12 -5 -14 -3 -8 8 7 11 5 11 -10 -1
-11 -9 -16 -10 -11 -2 5 8 -2 12 -24 12 -17 0 -41 5 -52 11 -15 8 -19 8 -14 0
4 -6 2 -11 -3 -11 -6 0 -11 5 -11 11 0 8 -6 7 -17 -2 -11 -10 -14 -10 -9 -1 5
9 -6 12 -46 12 -30 0 -60 6 -67 13 -8 7 -11 7 -8 1 4 -7 -3 -11 -18 -11 -14 0
-23 3 -20 7 2 3 -2 7 -10 7 -8 0 -11 -5 -8 -10 4 -6 1 -7 -8 -1 -19 12 -150
14 -171 3 -9 -5 -19 -5 -22 -1 -3 5 -22 9 -43 9 -32 1 -34 0 -13 -7z"/>
<path d="M2828 4913 c7 -3 16 -2 19 1 4 3 -2 6 -13 5 -11 0 -14 -3 -6 -6z"/>
</g>
</svg>
